<?xml version="1.0" encoding="utf-8"?>
<!-- Generator: Adobe Illustrator 19.0.0, SVG Export Plug-In . SVG Version: 6.00 Build 0)  -->
<svg version="1.1" id="Layer_1" xmlns="http://www.w3.org/2000/svg" xmlns:xlink="http://www.w3.org/1999/xlink" x="0px" y="0px"
	 viewBox="392 100.4 400 300" style="enable-background:new 392 100.4 400 300;" xml:space="preserve">
<style type="text/css">
	.st0{fill:#0404FF;}
</style>
<path class="st0" d="M752.8,234.3v-8.6h-41c0-11,0-18,0-18c0-2.2,1.1-5.4,2.5-7.1l5.1-6.6c1.4-1.7,0.8-3.7-1.3-4.4l-55.7-17.8
	c-2.1-0.7-3.8,0.6-3.8,2.8v51.1h-41v-65.3c0-2.2,1.6-4.8,3.5-5.8l15.9-8.2c1.9-1,1.8-2.4-0.3-3l-67.6-21.3c-2.1-0.7-3.8,0.6-3.8,2.8
	v100.8h-40.6V225c0-2.2,1.2-5.4,2.6-7l14.9-16.9c1.5-1.7,0.9-3.4-1.2-4l-32.6-8.2c-2.1-0.5-5.5-1.8-7.5-2.8l-25.6-12.9
	c-2-1-3.6,0-3.6,2.2v50.1h-40.6v8.6h40.6v19.4h-40.6v8.6h40.6v19.4h-40.6v8.6h40.6v19.4h-40.6v8.6h40.6v15.3c0,2.2-1.1,5.4-2.5,7.2
	l-11.6,14.8c-1.4,1.7-0.8,3.9,1.2,4.8l40.1,17.9c2,0.9,4.8,0.2,6.2-1.5l17-21.3c1.4-1.7,2.5-4.9,2.5-7.1V345h44.6h44.3h45v30.8
	c0,2.2,1.7,3.5,3.8,2.9c0,0,16.2-4.7,30.1-8.1c13.6-3.3,19.3-11,19.3-18.3c0-2.2,0-15.8,0-34h41v-8.6h-41c0-6.2,0-12.7,0-19.4h41
	v-8.6h-41c0-6.5,0-13,0-19.4h41v-8.6h-41c0-6.9,0-13.5,0-19.4H752.8z M524.7,234.3h40.6v19.4h-40.6V234.3z M524.7,262.3h40.6v19.4
	h-40.6V262.3z M524.7,290.3h40.6v19.4h-40.6V290.3z M524.7,318.3h40.6v14.4h-40.6V318.3z M658.6,332.7h-41v-14.4h41V332.7z
	 M658.6,309.6h-41v-19.4h41V309.6z M658.6,281.6h-41v-19.4h41V281.6z M658.6,253.6h-41v-19.4h41V253.6z"/>
</svg>
