<?xml version="1.0" encoding="utf-8"?>
<!-- Generator: Adobe Illustrator 19.0.0, SVG Export Plug-In . SVG Version: 6.00 Build 0)  -->
<svg version="1.1" id="Layer_1" xmlns="http://www.w3.org/2000/svg" xmlns:xlink="http://www.w3.org/1999/xlink" x="0px" y="0px"
	 viewBox="392 100.4 400 300" style="enable-background:new 392 100.4 400 300;" xml:space="preserve">
<style type="text/css">
	.st0{fill:#0404FF;}
	.st1{enable-background:new    ;}
	.st2{fill:#020285;}
	.st3{fill:#020299;}
</style>
<g>
	<rect x="431.1" y="225.6" class="st0" width="321.7" height="8.6"/>
	<rect x="431.1" y="253.6" class="st0" width="321.7" height="8.6"/>
	<rect x="431.1" y="281.6" class="st0" width="321.7" height="8.6"/>
	<rect x="431.1" y="309.6" class="st0" width="321.7" height="8.6"/>
	<g>
		<g class="st1">
			<path class="st2" d="M471.6,338.3v-10.4c0.1-0.5,0.1-0.9,0.1-1.4v10.4C471.7,337.4,471.7,337.8,471.6,338.3"/>
			<g>
				<path class="st0" d="M568,129.9c0.3,0,0.7,0.1,1.1,0.2l67.6,20.9c2.1,0.6,2.2,2,0.3,3l-15.8,7.9c-2,1-3.6,3.5-3.6,5.7v168.5h41
					V181.4c0-1.8,1.1-2.9,2.7-2.9c0.3,0,0.7,0.1,1.1,0.2l55.7,17.4c2.1,0.7,2.7,2.6,1.3,4.3l-5.1,6.4c-1.4,1.7-2.5,4.8-2.5,7
					c0,6.7,0,134.3,0,141.5c0,7.2-5.6,14.8-19.3,17.9c-13.9,3.2-29.3,7.6-30.1,7.9c-0.4,0.1-0.7,0.2-1,0.2c-1.6,0-2.8-1.2-2.8-3
					v-30.1h-45h-44.3h-44.6v3.2c0,2.1-1.1,5.3-2.5,7l-17,20.8c-1,1.2-2.6,1.8-4.2,1.8c-0.7,0-1.4-0.1-2-0.4l-40.1-17.5
					c-2-0.9-2.5-3-1.2-4.7l11.6-14.5c1.4-1.7,2.5-4.8,2.5-7V182.3c0-1.6,0.9-2.5,2.1-2.5c0.4,0,0.9,0.1,1.5,0.4l25.6,12.6
					c2,1,5.3,2.2,7.5,2.7l32.6,8c2.1,0.5,2.7,2.3,1.2,3.9l-14.9,16.6c-1.4,1.6-2.6,4.7-2.6,6.8v105.3h40.6V132.8
					C565.3,131.1,566.4,129.9,568,129.9z"/>
			</g>
			<g>
				<path class="st3" d="M471.3,329.3c0,0.1,0,0.1-0.1,0.2c-0.1,0.4-0.3,0.8-0.4,1.2c0,0.1-0.1,0.2-0.1,0.3c-0.1,0.3-0.3,0.7-0.4,1
					c0,0,0,0,0,0.1c-0.2,0.3-0.3,0.6-0.5,0.9c-0.1,0.2-0.3,0.4-0.4,0.6L457.7,348c-0.1,0.1-0.1,0.2-0.2,0.3c0,0,0,0.1,0,0.1
					c-0.1,0.1-0.2,0.3-0.2,0.4c0,0,0,0.1-0.1,0.1c0,0,0,0,0,0c-0.1,0.2-0.1,0.4-0.2,0.6c0,0,0,0,0,0c0,0.2,0,0.3,0,0.4v10.4
					c0-0.2,0-0.3,0-0.5c0-0.2,0.1-0.4,0.2-0.6c0-0.1,0.1-0.1,0.1-0.2c0.1-0.1,0.1-0.3,0.2-0.4c0.1-0.1,0.2-0.2,0.2-0.4l11.6-14.5
					c0.1-0.2,0.3-0.3,0.4-0.5c0,0,0-0.1,0-0.1c0.2-0.3,0.4-0.6,0.5-0.9c0,0,0,0,0-0.1c0.2-0.3,0.3-0.6,0.4-1c0,0,0-0.1,0-0.1
					c0-0.1,0-0.1,0.1-0.2c0.2-0.4,0.3-0.8,0.4-1.2c0-0.1,0-0.1,0.1-0.2c0.1-0.4,0.2-0.9,0.3-1.3c0,0,0-0.1,0-0.1v-0.1
					c0.1-0.5,0.1-0.9,0.1-1.3v-10.4c0,0.5-0.1,1-0.2,1.5C471.5,328.5,471.4,328.9,471.3,329.3z"/>
				<rect x="617.6" y="325.7" class="st3" width="41" height="10.4"/>
				<rect x="524.7" y="325.7" class="st3" width="40.6" height="10.4"/>
				<path class="st3" d="M719.1,196.5c0.1,0.1,0.3,0.2,0.4,0.3c0,0,0.1,0.1,0.1,0.1c0.1,0.1,0.1,0.1,0.2,0.2c0,0,0.1,0.1,0.1,0.1
					c0,0.1,0.1,0.1,0.1,0.2c0,0,0,0.1,0.1,0.1c0,0.1,0.1,0.2,0.1,0.3c0,0,0,0.1,0,0.1c0,0.1,0,0.3,0,0.4v-10.4c0-0.1,0-0.3,0-0.4
					c0,0,0-0.1,0-0.1c0-0.1,0-0.2-0.1-0.3c0,0,0-0.1-0.1-0.1c0-0.1-0.1-0.2-0.1-0.2c0,0-0.1-0.1-0.1-0.1c-0.1-0.1-0.1-0.1-0.2-0.2
					c0,0,0,0-0.1-0.1c0,0,0,0-0.1,0c-0.1-0.1-0.2-0.2-0.4-0.3c0,0,0,0,0,0c0,0,0,0,0,0c-0.2-0.1-0.3-0.2-0.5-0.3c0,0,0,0-0.1,0
					c-0.1,0-0.2-0.1-0.3-0.1l-55.7-17.4c-0.2-0.1-0.4-0.1-0.5-0.1c0,0,0,0,0,0c-0.2,0-0.4,0-0.6,0c-0.2,0-0.4,0-0.6,0.1c0,0,0,0,0,0
					c-0.1,0-0.3,0.1-0.4,0.1c0,0,0,0,0,0c-0.1,0-0.1,0.1-0.2,0.1c-0.1,0-0.2,0.1-0.3,0.2c-0.1,0-0.1,0.1-0.2,0.1
					c-0.1,0-0.1,0.1-0.2,0.1c0,0,0,0,0,0c-0.1,0.1-0.1,0.2-0.2,0.2c0,0-0.1,0.1-0.1,0.1c0,0,0,0,0,0c-0.1,0.1-0.1,0.2-0.1,0.3
					c0,0.1-0.1,0.1-0.1,0.2c0,0,0,0,0,0c-0.1,0.2-0.1,0.4-0.2,0.6c0,0,0,0,0,0c0,0.2,0,0.4,0,0.6v10.4c0-0.2,0-0.4,0.1-0.6
					c0-0.2,0.1-0.4,0.2-0.6c0-0.1,0.1-0.2,0.1-0.2c0-0.1,0.1-0.2,0.1-0.3c0-0.1,0.1-0.1,0.1-0.2c0.1-0.1,0.1-0.2,0.2-0.2
					c0.1-0.1,0.1-0.1,0.2-0.2c0.1,0,0.1-0.1,0.2-0.1c0.1-0.1,0.2-0.1,0.3-0.2c0.1,0,0.1-0.1,0.2-0.1c0.1-0.1,0.3-0.1,0.5-0.1
					c0.2,0,0.4-0.1,0.6-0.1c0.2,0,0.4,0,0.6,0c0.2,0,0.4,0.1,0.5,0.1l55.7,17.4c0.1,0,0.2,0.1,0.4,0.1
					C718.7,196.3,718.9,196.4,719.1,196.5C719,196.5,719.1,196.5,719.1,196.5z"/>
				<path class="st3" d="M504.5,194.3c0.4,0.1,0.8,0.3,1.2,0.4c0.1,0,0.2,0.1,0.3,0.1c0.3,0.1,0.6,0.2,0.9,0.3
					c0.1,0,0.2,0.1,0.3,0.1c0.4,0.1,0.7,0.2,1.1,0.3l32.6,8c0.2,0,0.3,0.1,0.5,0.2c0,0,0.1,0,0.1,0c0.1,0.1,0.3,0.1,0.4,0.2
					c0,0,0.1,0.1,0.1,0.1c0.1,0.1,0.2,0.2,0.3,0.3c0,0,0,0,0,0c0.1,0.1,0.1,0.1,0.1,0.2c0,0,0.1,0.1,0.1,0.1c0,0.1,0.1,0.1,0.1,0.2
					c0,0,0,0.1,0.1,0.1c0,0.1,0,0.1,0.1,0.2c0,0,0,0.1,0,0.1c0,0.1,0,0.2,0,0.4v-10.4c0-0.1,0-0.2,0-0.4c0,0,0-0.1,0-0.1
					c0-0.1,0-0.1-0.1-0.2c0,0,0-0.1-0.1-0.1c0-0.1-0.1-0.1-0.1-0.2c0,0-0.1-0.1-0.1-0.1c0-0.1-0.1-0.1-0.1-0.2c0,0,0,0,0,0
					c0,0,0,0,0,0c-0.1-0.1-0.2-0.2-0.3-0.3c0,0,0,0,0,0c0,0-0.1,0-0.1,0c-0.1-0.1-0.3-0.1-0.4-0.2c0,0,0,0-0.1,0c0,0,0,0,0,0
					c-0.2-0.1-0.3-0.1-0.5-0.2l-32.6-8c-0.3-0.1-0.7-0.2-1.1-0.3c-0.1,0-0.2-0.1-0.3-0.1c-0.3-0.1-0.6-0.2-0.9-0.3
					c-0.1,0-0.2-0.1-0.3-0.1c-0.4-0.1-0.8-0.3-1.2-0.4c-0.1,0-0.1,0-0.2-0.1c-0.4-0.1-0.7-0.3-1-0.4c-0.1,0-0.2-0.1-0.4-0.1
					c-0.3-0.1-0.5-0.2-0.8-0.3c-0.1,0-0.2-0.1-0.3-0.1c-0.3-0.1-0.7-0.3-0.9-0.4l-25.6-12.6c-0.1-0.1-0.2-0.1-0.3-0.1
					c-0.1,0-0.2,0-0.2-0.1c-0.1,0-0.2-0.1-0.3-0.1c0,0-0.1,0-0.1,0c-0.2,0-0.3,0-0.4,0c-0.2,0-0.3,0-0.5,0.1c0,0,0,0,0,0
					c-0.1,0-0.2,0-0.3,0.1c0,0,0,0,0,0c0,0-0.1,0-0.1,0.1c-0.1,0-0.1,0.1-0.2,0.1c0,0-0.1,0.1-0.1,0.1c0,0-0.1,0-0.1,0.1
					c0,0,0,0.1-0.1,0.1c-0.1,0.1-0.1,0.1-0.1,0.2c0,0-0.1,0.1-0.1,0.1c0,0,0,0.1,0,0.1c0,0.1-0.1,0.1-0.1,0.2c0,0,0,0.1-0.1,0.1
					c0,0,0,0.1,0,0.1c-0.1,0.1-0.1,0.3-0.1,0.5c0,0,0,0.1,0,0.1c0,0,0,0,0,0c0,0.2,0,0.4,0,0.6v10.4c0-0.2,0-0.4,0-0.6
					c0,0,0-0.1,0-0.1c0-0.2,0.1-0.3,0.1-0.5c0-0.1,0.1-0.1,0.1-0.2c0-0.1,0.1-0.1,0.1-0.2c0-0.1,0.1-0.1,0.1-0.2
					c0-0.1,0.1-0.1,0.1-0.2c0.1-0.1,0.1-0.1,0.2-0.2c0,0,0.1-0.1,0.1-0.1c0.1,0,0.1-0.1,0.2-0.1c0,0,0.1,0,0.1-0.1
					c0.1,0,0.2-0.1,0.3-0.1c0.2,0,0.3-0.1,0.5-0.1c0.2,0,0.4,0,0.6,0.1c0.1,0,0.2,0.1,0.3,0.1c0.2,0.1,0.4,0.1,0.5,0.2l25.6,12.6
					c0.3,0.1,0.6,0.3,0.9,0.4c0.1,0,0.2,0.1,0.3,0.1c0.2,0.1,0.5,0.2,0.8,0.3c0.1,0,0.1,0.1,0.2,0.1c0.1,0,0.1,0,0.2,0.1
					c0.3,0.1,0.7,0.3,1,0.4C504.4,194.3,504.5,194.3,504.5,194.3z"/>
				<path class="st3" d="M636.7,150.9c0.2,0.1,0.4,0.1,0.6,0.2c0.1,0,0.2,0.1,0.3,0.1c0.1,0.1,0.2,0.1,0.3,0.2c0,0,0.1,0.1,0.1,0.1
					c0.1,0.1,0.1,0.2,0.2,0.3c0,0,0.1,0.1,0.1,0.1c0.1,0.1,0.1,0.3,0.1,0.4V142c0-0.1,0-0.3-0.1-0.4c0,0-0.1-0.1-0.1-0.1
					c0-0.1-0.1-0.1-0.1-0.2c0,0,0,0-0.1,0c0,0-0.1-0.1-0.1-0.1c-0.1,0-0.1-0.1-0.2-0.1c0,0-0.1,0-0.1-0.1c-0.1,0-0.2-0.1-0.3-0.1
					c-0.1,0-0.1-0.1-0.2-0.1c-0.1,0-0.3-0.1-0.4-0.1l-67.6-20.9c-0.2-0.1-0.4-0.1-0.5-0.1c0,0,0,0,0,0c-0.2,0-0.4,0-0.6,0
					c-0.2,0-0.4,0-0.6,0.1c0,0,0,0,0,0c-0.1,0-0.3,0.1-0.4,0.1c0,0,0,0,0,0c-0.1,0-0.1,0.1-0.2,0.1c-0.1,0-0.2,0.1-0.3,0.2
					c-0.1,0-0.1,0.1-0.2,0.1c-0.1,0-0.1,0.1-0.2,0.1c0,0,0,0,0,0c-0.1,0.1-0.1,0.2-0.2,0.2c0,0-0.1,0.1-0.1,0.1c0,0,0,0,0,0
					c-0.1,0.1-0.1,0.2-0.1,0.3c0,0.1-0.1,0.1-0.1,0.2c0,0,0,0,0,0c-0.1,0.2-0.1,0.4-0.2,0.6c0,0,0,0,0,0c0,0.2,0,0.4,0,0.6v10.4
					c0-0.2,0-0.4,0.1-0.6c0-0.2,0.1-0.4,0.2-0.6c0-0.1,0.1-0.2,0.1-0.2c0-0.1,0.1-0.2,0.1-0.3c0-0.1,0.1-0.1,0.1-0.2
					c0.1-0.1,0.1-0.2,0.2-0.2c0.1-0.1,0.1-0.1,0.2-0.2c0.1,0,0.1-0.1,0.2-0.1c0.1-0.1,0.2-0.1,0.3-0.2c0.1,0,0.1-0.1,0.2-0.1
					c0.1-0.1,0.3-0.1,0.5-0.1c0.2,0,0.4-0.1,0.6-0.1c0.2,0,0.4,0,0.6,0c0.2,0,0.4,0.1,0.5,0.1L636.7,150.9z"/>
			</g>
		</g>
	</g>
</g>
</svg>
