<?xml version="1.0" encoding="UTF-8"?>
<!-- Generator: Adobe Illustrator 16.0.0, SVG Export Plug-In . SVG Version: 6.00 Build 0)  -->
<!DOCTYPE svg PUBLIC "-//W3C//DTD SVG 1.1//EN" "http://www.w3.org/Graphics/SVG/1.1/DTD/svg11.dtd">
<svg version="1.1" id="Layer_1" xmlns="http://www.w3.org/2000/svg" xmlns:xlink="http://www.w3.org/1999/xlink" x="0px" y="0px" width="170.079px" height="170.079px" viewBox="212.598 0 170.079 170.079" enable-background="new 212.598 0 170.079 170.079" xml:space="preserve">
<g id="Layer_1_1_">
</g>
<g id="Layer_2">
	<g>
		<g>
			<circle fill="#00A9CE" cx="297.214" cy="420.774" r="70.866"/>
			
				<linearGradient id="SVGID_1_" gradientUnits="userSpaceOnUse" x1="435.7871" y1="166.7126" x2="499.2308" y2="74.4013" gradientTransform="matrix(1 0 0 -1 -155.8701 562.3198)">
				<stop offset="0.15" style="stop-color:#00313C;stop-opacity:0"/>
				<stop offset="1" style="stop-color:#00313C"/>
			</linearGradient>
			<circle fill="url(#SVGID_1_)" cx="297.214" cy="420.774" r="70.866"/>
		</g>
		<g>
			<path fill="#FFFFFF" d="M257.436,458.216c-6.449,0-11.242-4.98-11.242-11.275v-0.063c0-6.234,4.695-11.341,11.432-11.341     c4.139,0,6.607,1.384,8.645,3.386l-3.068,3.537c-1.695-1.533-3.416-2.476-5.609-2.476c-3.693,0-6.359,3.07-6.359,6.83v0.063     c0,3.756,2.604,6.891,6.359,6.891c2.512,0,4.043-1.002,5.766-2.568l3.068,3.103C264.17,456.712,261.666,458.216,257.436,458.216z     "/>
			<path fill="#FFFFFF" d="M278.875,458.152c-3.318,0-6.668-1.16-9.299-3.51l2.846-3.412c1.975,1.627,4.043,2.664,6.553,2.664     c1.973,0,3.16-0.785,3.16-2.07v-0.061c0-1.226-0.754-1.851-4.418-2.789c-4.41-1.127-7.268-2.353-7.268-6.701v-0.063     c0-3.978,3.195-6.609,7.674-6.609c3.195,0,5.926,1.002,8.145,2.791l-2.506,3.631c-1.939-1.346-3.85-2.162-5.701-2.162     c-1.848,0-2.818,0.846-2.818,1.912v0.066c0,1.438,0.939,1.903,4.73,2.875c4.447,1.159,6.951,2.76,6.951,6.582v0.063     C286.924,455.714,283.605,458.152,278.875,458.152z"/>
			<path fill="#FFFFFF" d="M292.26,457.839v-11.271v-10.652h4.822v10.652v11.271H292.26z"/>
			<path fill="#FFFFFF" d="M316.563,457.839l-4.697-7.013h-3.791v7.013h-4.822v-21.925h10.021c5.164,0,8.268,2.728,8.268,7.234     v0.064c0,3.536-1.906,5.762-4.695,6.795l5.355,7.83L316.563,457.839L316.563,457.839z M316.652,443.4     c0-2.066-1.437-3.133-3.783-3.133h-4.795v6.299h4.887c2.353,0,3.691-1.254,3.691-3.104V443.4z"/>
			<path fill="#FFFFFF" d="M336.551,458.216c-6.764,0-11.619-5.041-11.619-11.275v-0.063c0-6.234,4.92-11.341,11.685-11.341     c6.766,0,11.617,5.043,11.617,11.277v0.063C348.232,453.109,343.314,458.216,336.551,458.216z M343.193,446.878     c0-3.759-2.759-6.894-6.644-6.894s-6.576,3.07-6.576,6.83v0.063c0,3.756,2.754,6.891,6.642,6.891c3.883,0,6.578-3.07,6.578-6.828     V446.878z"/>
		</g>
		<g>
			<circle fill="#FFFFFF" cx="314.592" cy="424.711" r="3.797"/>
			<path fill="#FFFFFF" d="M302.818,377.045c-1.945,0-3.521,1.574-3.521,3.517v30.09c0,1.938,1.574,3.516,3.521,3.516     c1.938,0,3.512-1.576,3.512-3.516v-30.09C306.33,378.619,304.756,377.045,302.818,377.045z"/>
			<path fill="#FFFFFF" d="M279.266,373.67c-1.941,0-3.518,1.574-3.518,3.517V403.9c0,1.94,1.576,3.518,3.518,3.518     c1.939,0,3.516-1.576,3.516-3.518v-26.715C282.781,375.244,281.205,373.67,279.266,373.67z"/>
			<path fill="#FFFFFF" d="M326.365,383.795c-1.939,0-3.517,1.572-3.517,3.517v19.967c0,1.938,1.576,3.514,3.517,3.514     s3.512-1.573,3.512-3.514v-19.967C329.877,385.367,328.307,383.795,326.365,383.795z"/>
			<path fill="#FFFFFF" d="M267.49,383.795c-1.941,0-3.516,1.572-3.516,3.517v19.967c0,1.938,1.574,3.514,3.516,3.514     c1.942,0,3.512-1.573,3.512-3.514v-19.967C271.002,385.367,269.432,383.795,267.49,383.795z"/>
			<path fill="#FFFFFF" d="M314.59,366.92c-1.938,0-3.516,1.574-3.516,3.517v43.59c0,1.938,1.576,3.516,3.516,3.516     c1.943,0,3.515-1.576,3.515-3.516v-43.59C318.104,368.494,316.533,366.92,314.59,366.92z"/>
			<path fill="#FFFFFF" d="M291.041,366.92c-1.941,0-3.52,1.574-3.52,3.517v30.09c0,1.943,1.578,3.516,3.52,3.516     c1.938,0,3.512-1.571,3.512-3.516v-30.09C294.553,368.494,292.979,366.92,291.041,366.92z"/>
		</g>
	</g>
</g>
<g id="Layer_2_1_">
	<g>
		<g>
			<circle fill="#00A9CE" cx="297.214" cy="85.774" r="70.866"/>
			
				<linearGradient id="SVGID_2_" gradientUnits="userSpaceOnUse" x1="435.7861" y1="501.7126" x2="499.2302" y2="409.4008" gradientTransform="matrix(1 0 0 -1 -155.8701 562.3198)">
				<stop offset="0.15" style="stop-color:#00313C;stop-opacity:0"/>
				<stop offset="1" style="stop-color:#00313C"/>
			</linearGradient>
			<circle fill="url(#SVGID_2_)" cx="297.214" cy="85.774" r="70.866"/>
		</g>
		<g>
			<path fill="#FFFFFF" d="M257.436,123.216c-6.449,0-11.242-4.98-11.242-11.275v-0.063c0-6.234,4.695-11.341,11.432-11.341     c4.139,0,6.607,1.384,8.645,3.386l-3.068,3.537c-1.695-1.533-3.416-2.476-5.609-2.476c-3.693,0-6.359,3.07-6.359,6.83v0.063     c0,3.756,2.604,6.891,6.359,6.891c2.512,0,4.043-1.002,5.766-2.568l3.068,3.103C264.17,121.712,261.666,123.216,257.436,123.216z     "/>
			<path fill="#FFFFFF" d="M278.875,123.152c-3.318,0-6.668-1.16-9.299-3.51l2.846-3.412c1.975,1.627,4.043,2.664,6.553,2.664     c1.973,0,3.16-0.785,3.16-2.07v-0.061c0-1.226-0.754-1.851-4.418-2.789c-4.41-1.127-7.268-2.353-7.268-6.701v-0.063     c0-3.978,3.195-6.609,7.674-6.609c3.195,0,5.926,1.002,8.145,2.791l-2.506,3.631c-1.939-1.346-3.85-2.162-5.701-2.162     c-1.848,0-2.818,0.846-2.818,1.912v0.066c0,1.438,0.939,1.903,4.73,2.875c4.447,1.159,6.951,2.76,6.951,6.582v0.063     C286.924,120.714,283.605,123.152,278.875,123.152z"/>
			<path fill="#FFFFFF" d="M292.26,122.839v-11.271v-10.652h4.822v10.652v11.271H292.26z"/>
			<path fill="#FFFFFF" d="M316.563,122.839l-4.697-7.013h-3.791v7.013h-4.822v-21.925h10.021c5.164,0,8.268,2.728,8.268,7.234     v0.064c0,3.536-1.906,5.762-4.695,6.795l5.355,7.83L316.563,122.839L316.563,122.839z M316.652,108.4     c0-2.066-1.437-3.133-3.783-3.133h-4.795v6.299h4.887c2.353,0,3.691-1.254,3.691-3.104V108.4z"/>
			<path fill="#FFFFFF" d="M336.551,123.216c-6.764,0-11.619-5.041-11.619-11.275v-0.063c0-6.234,4.92-11.341,11.685-11.341     c6.766,0,11.617,5.043,11.617,11.277v0.063C348.232,118.109,343.314,123.216,336.551,123.216z M343.193,111.878     c0-3.759-2.759-6.894-6.644-6.894s-6.576,3.07-6.576,6.83v0.063c0,3.756,2.754,6.891,6.642,6.891c3.883,0,6.578-3.07,6.578-6.828     V111.878z"/>
		</g>
		<g>
			<circle fill="#FFFFFF" cx="314.592" cy="89.711" r="3.797"/>
			<path fill="#FFFFFF" d="M302.818,42.045c-1.945,0-3.521,1.574-3.521,3.517v30.09c0,1.938,1.574,3.516,3.521,3.516     c1.938,0,3.512-1.576,3.512-3.516v-30.09C306.33,43.619,304.756,42.045,302.818,42.045z"/>
			<path fill="#FFFFFF" d="M279.266,38.67c-1.941,0-3.518,1.574-3.518,3.517V68.9c0,1.94,1.576,3.518,3.518,3.518     c1.939,0,3.516-1.576,3.516-3.518V42.185C282.781,40.244,281.205,38.67,279.266,38.67z"/>
			<path fill="#FFFFFF" d="M326.365,48.795c-1.939,0-3.517,1.572-3.517,3.517v19.967c0,1.938,1.576,3.514,3.517,3.514     s3.512-1.573,3.512-3.514V52.311C329.877,50.367,328.307,48.795,326.365,48.795z"/>
			<path fill="#FFFFFF" d="M267.49,48.795c-1.941,0-3.516,1.572-3.516,3.517v19.967c0,1.938,1.574,3.514,3.516,3.514     c1.942,0,3.512-1.573,3.512-3.514V52.311C271.002,50.367,269.432,48.795,267.49,48.795z"/>
			<path fill="#FFFFFF" d="M314.59,31.92c-1.938,0-3.516,1.574-3.516,3.517v43.59c0,1.938,1.576,3.516,3.516,3.516     c1.943,0,3.515-1.576,3.515-3.516v-43.59C318.104,33.494,316.533,31.92,314.59,31.92z"/>
			<path fill="#FFFFFF" d="M291.041,31.92c-1.941,0-3.52,1.574-3.52,3.517v30.09c0,1.943,1.578,3.516,3.52,3.516     c1.938,0,3.512-1.571,3.512-3.516v-30.09C294.553,33.494,292.979,31.92,291.041,31.92z"/>
		</g>
	</g>
</g>
</svg>