<?xml version="1.0" encoding="UTF-8" standalone="no"?>
<svg
   xmlns:dc="http://purl.org/dc/elements/1.1/"
   xmlns:cc="http://creativecommons.org/ns#"
   xmlns:rdf="http://www.w3.org/1999/02/22-rdf-syntax-ns#"
   xmlns:svg="http://www.w3.org/2000/svg"
   xmlns="http://www.w3.org/2000/svg"
   xmlns:sodipodi="http://sodipodi.sourceforge.net/DTD/sodipodi-0.dtd"
   xmlns:inkscape="http://www.inkscape.org/namespaces/inkscape"
   version="1.1"
   id="svg-spinner"
   x="0px"
   y="0px"
   viewBox="0 0 80 80"
   xml:space="preserve"
   sodipodi:docname="loading.svg"
   inkscape:version="0.92.3 (2405546, 2018-03-11)"><metadata
   id="metadata8"><rdf:RDF><cc:Work
       rdf:about=""><dc:format>image/svg+xml</dc:format><dc:type
         rdf:resource="http://purl.org/dc/dcmitype/StillImage" /></cc:Work></rdf:RDF></metadata><defs
   id="defs6" /><sodipodi:namedview
   pagecolor="#ffffff"
   bordercolor="#666666"
   borderopacity="1"
   objecttolerance="10"
   gridtolerance="10"
   guidetolerance="10"
   inkscape:pageopacity="0"
   inkscape:pageshadow="2"
   inkscape:window-width="1920"
   inkscape:window-height="1003"
   id="namedview4"
   showgrid="false"
   inkscape:zoom="8.34386"
   inkscape:cx="75.997212"
   inkscape:cy="28.488939"
   inkscape:window-x="0"
   inkscape:window-y="0"
   inkscape:window-maximized="1"
   inkscape:current-layer="svg-spinner" />
   <linearGradient id="grad1" x1="0%" y1="0%" x2="100%" y2="0%">
      <stop offset="0%" style="stop-color:#5A6165;stop-opacity:1" />
      <stop offset="100%" style="stop-color:#2C3940;stop-opacity:1" />
    </linearGradient>
    <path
   id="spinner"
   fill="none"
   stroke="url(#grad1)"
   stroke-width="2"
   stroke-linecap="round"
   d="M40,72C22.4,72,8,57.6,8,40C8,22.4,22.4,8,40,8c17.6,0,32,14.4,32,32c0,1.1–0.9,2–2,2 s-2–0.9–2–2c0–15.4–12.6–28–28–28S12,24.6,12,40s12.6,28,28,28c1.1,0,2,0.9,2,2S41.1,72,40,72z"> 
  <animateTransform
   attributeType="xml"
   attributeName="transform"
   type="rotate"
   from="0 40 40"
   to="360 40 40"
   dur="0.8s"
   repeatCount="indefinite" />
  &gt;
  </path>
  
<path
   inkscape:connector-curvature="0"
   style="fill:none;stroke:url(#grad1);stroke-width:2;stroke-linecap:round"
   id="spinner-3"
   d="m 40.204089,67.286417 c -15.023719,0 -27.315852,-12.292133 -27.315852,-27.315852 0,-15.023718 12.292133,-27.315851 27.315852,-27.315851"><animateTransform
   attributeType="xml"
   attributeName="transform"
   type="rotate"
   from="0 40 40"
   to="-360 40 40"
   dur="0.7s"
   repeatCount="indefinite" />

  &gt;
  </path></svg>